<svg xmlns="http://www.w3.org/2000/svg" width="100" height="100" viewBox="0 0 100 100"><path fill="#3CB29D" d="M50 0c27.614 0 50 22.386 50 50s-22.386 50-50 50S0 77.614 0 50 22.386 0 50 0z"/><path fill="#334E5C" d="M45.173 32.001c13.535 0 24.507 10.969 24.507 24.5S58.708 81 45.173 81 20.667 70.031 20.667 56.5s10.972-24.499 24.506-24.499z"/><path fill="#2D4552" d="M49.173 76c-13.535 0-24.507-10.969-24.507-24.5 0-4.626 1.284-8.952 3.513-12.643-4.629 4.457-7.513 10.711-7.513 17.643 0 13.531 10.972 24.5 24.507 24.5 8.907 0 16.703-4.751 20.994-11.856C61.761 73.386 55.774 76 49.173 76z"/><path fill="#2F4856" d="M67.762 66.018a40.32 40.32 0 0 0 .223-4.238c0-6.884-1.447-11.813-4.708-17.837a21.3 21.3 0 0 1-2.22-6.092 24.45 24.45 0 0 0-7.84-4.493c.068 3.635-.77 7.251-2.59 10.509a37.053 37.053 0 0 0-4.645 17.913 37.065 37.065 0 0 0 4.645 17.913h.043c.143.179.406.346.758.499 7.385-1.944 13.409-7.245 16.334-14.174z"/><path fill="#2A414D" d="M49.173 76l-.32-.008a37.26 37.26 0 0 0 1.774 3.701h.043c.142.178.404.345.754.497l.053-.013.771-.227.672-.206.746-.268.662-.251.715-.305.654-.298.68-.337.649-.348.641-.365.647-.401.593-.385c.227-.153.447-.314.667-.475l.522-.382c.256-.197.504-.403.753-.61l.383-.315c.369-.32.729-.651 1.078-.993l.199-.206c.281-.282.559-.567.826-.862l.315-.364c.219-.252.438-.505.646-.766l.324-.42c.194-.253.386-.509.571-.771l.31-.453c.177-.262.349-.526.515-.795l.127-.21A24.411 24.411 0 0 1 49.173 76z"/><path fill="#EDEDED" d="M70.985 61.78c0-6.884-1.447-11.813-4.708-17.837-2.405-4.38-3.184-9.23-2.249-14.001l1.551-8.057c.061-.401.078-.542.078-1.097 0-3.204-2.564-5.789-5.742-5.789-3.111 0-5.671 2.585-5.671 5.79 0 .414-.01.695.08 1.096l1.552 7.979c.853 4.772.154 9.699-2.249 14.002a37.053 37.053 0 0 0-4.645 17.913 37.065 37.065 0 0 0 4.645 17.913h.043c.595.746 3.182 1.308 6.284 1.308 3.388 0 6.155-.67 6.39-1.518 3.21-5.961 4.641-10.869 4.641-17.702z"/><path fill="#2D4552" d="M42.667 40.5a2.5 2.5 0 1 0-5 0 2.5 2.5 0 0 0 5 0zm6.5-1.5a2.5 2.5 0 1 0 0 5 2.5 2.5 0 0 0 0-5zm-5 6a2.5 2.5 0 1 0 0 5 2.5 2.5 0 0 0 0-5z"/><path fill="#DDDCDC" d="M56.67 79.693h-.043a37.08 37.08 0 0 1-4.645-17.913c0-6.26 1.614-12.439 4.645-17.913 2.403-4.303 3.102-9.23 2.249-14.002l-1.552-7.979a5.707 5.707 0 0 1-.08-1.096c0-2.675 1.786-4.912 4.185-5.581A5.716 5.716 0 0 0 59.916 15c-3.111 0-5.671 2.585-5.671 5.79 0 .585.021.679.08 1.096l1.552 7.979c.853 4.772.154 9.699-2.249 14.002a37.053 37.053 0 0 0-4.645 17.913 37.065 37.065 0 0 0 4.645 17.913h.043c.594.745 3.181 1.307 6.283 1.307.528 0 1.038-.018 1.529-.049-2.419-.145-4.316-.635-4.813-1.258z"/><path d="M64.304 38.986a20.366 20.366 0 0 1-.618-3.991H56.18a20.903 20.903 0 0 1-.614 3.991h8.738zm-8.596-9.991l.169.87a22.22 22.22 0 0 1 .32 3.122h7.484c.045-1.015.149-2.031.348-3.044l.182-.947h-8.503z" fill="#E2574C"/><path d="M55.876 29.865a22.22 22.22 0 0 1 .32 3.122h3a22.385 22.385 0 0 0-.32-3.122l-.169-.87h-3l.169.87zm.305 5.13a20.903 20.903 0 0 1-.614 3.991h3c.335-1.31.537-2.645.614-3.991h-3z" fill="#D25047"/><path d="M39.583 38.542a2.5 2.5 0 0 1 2.5 2.5c0 .589-.212 1.123-.552 1.55a2.493 2.493 0 0 0 1.136-2.091 2.5 2.5 0 0 0-2.5-2.5c-.792 0-1.49.375-1.948.95.392-.258.86-.409 1.364-.409zM44.167 45c-.792 0-1.49.375-1.948.95.393-.257.86-.409 1.364-.409a2.5 2.5 0 0 1 2.5 2.5c0 .589-.212 1.123-.552 1.55a2.493 2.493 0 0 0 1.136-2.091 2.5 2.5 0 0 0-2.5-2.5zm5-6c-.792 0-1.49.375-1.948.95.393-.257.86-.409 1.364-.409a2.5 2.5 0 0 1 2.5 2.5c0 .589-.212 1.123-.552 1.55a2.493 2.493 0 0 0 1.136-2.091 2.5 2.5 0 0 0-2.5-2.5z" fill="#2C4350"/></svg>