<svg xmlns="http://www.w3.org/2000/svg" width="100" height="100" viewBox="0 0 100 100"><path fill="#F4F0D3" d="M50 0c27.614 0 50 22.386 50 50s-22.386 50-50 50S0 77.614 0 50 22.386 0 50 0z"/><path fill="#D58953" d="M50 18c17.673 0 32 14.327 32 32 0 17.674-14.327 32-32 32S18 67.674 18 50c0-17.673 14.327-32 32-32z"/><path fill="#CA824F" d="M50 27c12.702 0 23 10.297 23 23 0 12.702-10.298 23-23 23S27 62.702 27 50c0-12.703 10.298-23 23-23z"/><path fill="#D99565" d="M69.683 30.297c7.019 7.031 9.68 17.874 7.689 27.716 3.464-9.95 1.368-21.272-6.377-29.031s-19.049-9.857-28.981-6.388c9.825-1.992 20.65.673 27.669 7.703z"/><path fill="#A2683F" d="M42 38a4 4 0 1 0 0 8 4 4 0 0 0 0-8zm16 8a4 4 0 1 0 0-8 4 4 0 0 0 0 8zm0 8a4 4 0 1 0 0 8 4 4 0 0 0 0-8zm-16 0a4 4 0 1 0 0 8 4 4 0 0 0 0-8z"/><path fill="#F4F0D3" d="M58.416 55.449l-13.86-13.861a2.077 2.077 0 0 0-2.937 2.937l13.86 13.86a2.077 2.077 0 0 0 2.937-2.936z"/><path fill="#CBC8AF" d="M50.557 53.463l-4.021-4.021 2.937-2.937 4.021 4.021z"/><path fill="#F4F0D3" d="M41.615 55.449l13.86-13.861a2.077 2.077 0 0 1 2.937 2.937l-13.86 13.86a2.077 2.077 0 0 1-2.937-2.936z"/><path fill="#BA7849" d="M52 71c-12.702 0-23-10.298-23-23a22.906 22.906 0 0 1 5.771-15.229C30.007 36.985 27 43.14 27 50c0 12.702 10.298 23 23 23 6.86 0 13.015-3.007 17.229-7.771A22.911 22.911 0 0 1 52 71z"/><path fill="#DBD8BD" d="M50 82c-17.673 0-32-14.326-32-32a31.884 31.884 0 0 1 8.396-21.604C20.008 34.247 16 42.655 16 52c0 17.674 14.327 32 32 32 9.346 0 17.753-4.008 23.604-10.396C65.91 78.817 58.328 82 50 82z"/></svg>