<svg xmlns="http://www.w3.org/2000/svg" width="100" height="100" viewBox="0 0 100 100"><path fill="#4681A0" d="M50 0c27.614 0 50 22.386 50 50s-22.386 50-50 50S0 77.614 0 50 22.386 0 50 0z"/><path fill="#fff" d="M64.01 63.75l-.021-1.5c.034 0 3.41-.069 6.717-1.759C75.048 58.273 77.25 54.407 77.25 49h1.5c0 14.396-14.593 14.748-14.74 14.75z"/><path fill="#3F7490" d="M65.01 64.75l-.021-1.5c.034 0 3.41-.069 6.717-1.759C76.048 59.273 78.25 55.407 78.25 50h1.5c0 14.396-14.593 14.748-14.74 14.75z"/><path fill="#D5D5D5" d="M79 45a3.001 3.001 0 0 1 0 6 3 3 0 0 1 0-6z"/><path fill="#BDBDBD" d="M32 61h36a4 4 0 0 1 4 4v10a4 4 0 0 1-4 4H32a4 4 0 0 1-4-4V65a4 4 0 0 1 4-4z"/><path fill="#3F7490" d="M48 21c12.15 0 22 9.85 22 22s-9.85 22-22 22-22-9.85-22-22 9.85-22 22-22z"/><path fill="#D5D5D5" d="M32 58h36a4 4 0 0 1 4 4v10a4 4 0 0 1-4 4H32a4 4 0 0 1-4-4V62a4 4 0 0 1 4-4z"/><path fill="#BFBFBF" d="M32 58l-.079.008C35.936 62.309 41.652 65 48 65c6.352 0 12.071-2.695 16.087-7H32z"/><path fill="#A4A4A4" d="M32 61a1 1 0 1 0 0 2 1 1 0 0 0 0-2zm36 2a1 1 0 1 0 .002-1.998A1 1 0 0 0 68 63zm0 8a1 1 0 1 0 0 2 1 1 0 0 0 0-2zm-36 0a1 1 0 1 0 0 2 1 1 0 0 0 0-2z"/><path fill="#F0C75E" d="M50 19c12.15 0 22 9.85 22 22s-9.85 22-22 22-22-9.85-22-22 9.85-22 22-22z"/><path fill="#D9B455" d="M49 39a3.001 3.001 0 0 1 0 6 3 3 0 0 1 0-6z"/><path fill="#F5D88F" d="M50 38a3.001 3.001 0 0 1 0 6 3 3 0 0 1 0-6z"/><path fill="#BABABA" d="M80 50a3 3 0 0 1-3-3c0-.571.168-1.1.445-1.554A2.99 2.99 0 0 0 76 48a2.991 2.991 0 1 0 5.555 1.554A2.97 2.97 0 0 1 80 50z"/><path fill="#F7E4B0" d="M50 38a2.988 2.988 0 0 0-2.554 1.446A2.965 2.965 0 0 1 49 39c1.656 0 3 1.344 3 3 0 .571-.168 1.1-.445 1.554A2.99 2.99 0 0 0 53 41c0-1.656-1.344-3-3-3z"/><path fill="#DFB957" d="M53 58c-12.15 0-22-9.85-22-22 0-3.088.639-6.027 1.788-8.694A21.9 21.9 0 0 0 28 41c0 12.15 9.85 22 22 22 9.062 0 16.842-5.48 20.212-13.306C66.182 54.754 59.972 58 53 58z"/></svg>