<svg xmlns="http://www.w3.org/2000/svg" width="100" height="100" viewBox="0 0 100 100"><path fill="#3DB39E" d="M50 0C22.386 0 0 22.386 0 50c0 27.613 22.386 50 50 50s50-22.387 50-50c0-27.614-22.386-50-50-50z"/><path fill="#EFC75E" d="M19.232 61.603l2.68-26.548c-.002-.22-.061-1.474-1.228-1.518a.909.909 0 0 1 .069-1.815c1.608.061 2.455 1.136 2.791 2.221l19.918-5.92a.903.903 0 0 1 1.062.502c.111.246 12.165 24.628 34.551 24.628 3.932 0 7.417 3.701 7.879 6.946l.007.028.001.015.018.099c.162 1.405-.265 3.308-1.164 4.534-22.107-.047-49.027.348-66.816.188l.235-3.352-.003-.008z"/><path fill="#EBEDEE" d="M34.002 37.008c-3.866 0-7 3.129-7 6.989 0 3.859 3.134 6.988 7 6.988 3.865 0 7-3.128 7-6.988 0-3.86-3.135-6.989-7-6.989z"/><path fill="#C6584E" d="M30.043 42.977a.582.582 0 0 1 .459-.391l2.076-.32.902-1.943a.575.575 0 0 1 1.042 0l.902 1.943 2.075.32a.584.584 0 0 1 .325.982l-1.521 1.575.354 2.185a.587.587 0 0 1-.236.569.572.572 0 0 1-.611.033l-1.809-1.01-1.81 1.01a.577.577 0 0 1-.846-.602l.353-2.185-1.521-1.575a.587.587 0 0 1-.134-.591z"/><path fill="#DCB757" d="M21.16 64.978l3.008-31.22-.625.186c-.336-1.084-1.183-2.16-2.791-2.221a.91.91 0 0 0-.069 1.815c1.167.044 1.226 1.297 1.228 1.518l-2.68 26.548.001.009-.235 3.352 2.163.013z"/><path fill="#F1CD6E" d="M86.239 57.957c-1.296-2.539-4.091-4.804-7.165-4.804-22.386 0-34.439-24.382-34.551-24.628a.903.903 0 0 0-1.062-.502l-2.671.794c7.411 16.646 24.883 28.496 45.449 29.14z"/><path fill="#FEFEFC" d="M52.619 37.381a1.29 1.29 0 0 0-1.816 0l-2.422 2.405a1.268 1.268 0 0 0 0 1.803 1.29 1.29 0 0 0 1.816 0l2.422-2.405a1.268 1.268 0 0 0 0-1.803zm4 4a1.289 1.289 0 0 0-1.816 0l-2.422 2.405a1.268 1.268 0 0 0 0 1.803 1.29 1.29 0 0 0 1.816 0l2.422-2.405a1.268 1.268 0 0 0 0-1.803zm4 4a1.29 1.29 0 0 0-1.816 0l-2.422 2.405a1.268 1.268 0 0 0 0 1.803 1.29 1.29 0 0 0 1.816 0l2.422-2.405a1.268 1.268 0 0 0 0-1.803z"/><path fill="#EBEDEE" d="M86.979 60.241l-.018-.099-.001-.015-.007-.028c-.462-3.245-3.947-6.946-7.879-6.946-2.76 0-5.36-.373-7.803-1.023-1.66 2.422-2.667 5.554-2.667 8.982 0 1.281.151 2.516.413 3.693 5.749-.026 11.416-.042 16.797-.03.9-1.226 1.327-3.129 1.165-4.534z"/><path fill="#3E4E5C" d="M69.354 61.112c0-3.385 1.032-6.464 2.71-8.795a31.625 31.625 0 0 1-1.541-.407c-1.666 2.517-2.669 5.717-2.669 9.202 0 1.279.148 2.514.401 3.696l1.525-.006a16.304 16.304 0 0 1-.426-3.69z"/><path fill="#D7B354" d="M86.27 64.006a7.31 7.31 0 0 0 .644-2.008H19.207l-.141 2.008H86.27z"/><path fill="#CFAC51" d="M21.447 61.998h-2.24l-.073 1.029-.068.979h2.187z"/><path fill="#D3D5D6" d="M68.655 61.998c.037.685.113 1.354.228 2.008H86.27l.001-.002a7.12 7.12 0 0 0 .391-.97l.004-.014c.105-.333.188-.675.246-1.016l.002-.007H68.655z"/><path fill="#384653" d="M68.125 64.006h1.493a16.348 16.348 0 0 1-.237-2.008h-1.477c.036.684.11 1.353.221 2.008z"/><path fill="#fff" d="M86.353 62.986H19.647c-.91 0-1.647.717-1.647 1.601v.8c0 .884.737 1.6 1.647 1.6h66.706c.909 0 1.647-.716 1.647-1.6v-.8c0-.884-.738-1.601-1.647-1.601z"/><path d="M42.018 62.986h1.969v4h-1.969zm-5 0h1.969v4h-1.969zm-5 0h1.969v4h-1.969zm-5 0h1.969v4h-1.969zm-5.001 0h1.969v4h-1.969zm30.001 0h1.969v4h-1.969zm-5 0h1.969v4h-1.969zm10 0h1.969v4h-1.969zm20 0h1.969v4h-1.969zm5 0h1.969v4h-1.969zm-10 0h1.969v4h-1.969zm-5 0h1.969v4h-1.969zm-5 0h1.969v4h-1.969z" fill="#E5E5E5"/></svg>