<svg xmlns="http://www.w3.org/2000/svg" width="100" height="100" viewBox="0 0 100 100"><path fill="#E2574C" d="M50 0c27.614 0 50 22.386 50 50s-22.386 50-50 50S0 77.614 0 50 22.386 0 50 0z"/><path fill="#CB4E44" d="M78.604 9a49.278 49.278 0 0 0-3.092-2H63V1.717a50.701 50.701 0 0 0-2-.488V7H39V1.229c-.671.151-1.339.311-2 .488V7H24.488a49.571 49.571 0 0 0-3.092 2H27v10H10.785a48.754 48.754 0 0 0-1.503 2H13v10H3.747a51.388 51.388 0 0 0-.778 2H27v10H.498a50.548 50.548 0 0 0-.249 2H13v10H.25c.067.672.156 1.337.249 2H27v10H2.969c.244.675.506 1.34.778 2H13v10H9.282c.484.68.985 1.347 1.503 2H27v10h-5.604a50.5 50.5 0 0 0 3.092 2H37v5.282c.661.178 1.329.338 2 .489V93h22v5.771a50.709 50.709 0 0 0 2-.489V93h12.512a50.196 50.196 0 0 0 3.092-2H77V81h12.215a48.08 48.08 0 0 0 1.503-2H87V69h9.253c.271-.66.534-1.325.778-2H77V57h22.502c.093-.663.182-1.328.248-2H87V45h12.75a48.74 48.74 0 0 0-.248-2H77V33h20.031a51.388 51.388 0 0 0-.778-2H87V21h3.718a48.754 48.754 0 0 0-1.503-2H77V9h1.604zM53 9h22v10H53V9zM39 69h22v10H39V69zm-10-2V57h22v10H29zm24 0V57h22v10H53zm8-12H39V45h22v10zM29 43V33h22v10H29zm24 0V33h22v10H53zm8-12H39V21h22v10zM29 9h22v10H29V9zM15 31V21h22v10H15zm0 24V45h22v10H15zm0 24V69h22v10H15zm36 12H29V81h22v10zm24 0H53V81h22v10zm10-22v10H63V69h22zm0-24v10H63V45h22zm0-24v10H63V21h22z"/><path fill="#C04A41" d="M45 36c11.598 0 21 9.402 21 21s-9.402 21-21 21-21-9.402-21-21 9.402-21 21-21z"/><path fill="#AD423A" d="M26.53 67c.376.693.801 1.356 1.25 2H37v7.413c.65.269 1.318.503 2 .706V69h22v1.583A21.098 21.098 0 0 0 63.47 67H53V57h13c0-.675-.039-1.341-.101-2H63v-8.775A21.046 21.046 0 0 0 60.621 43H53v-5.413a20.855 20.855 0 0 0-2-.706V43H29.379a21.096 21.096 0 0 0-1.599 2H37v10H24.101A21.321 21.321 0 0 0 24 57h3v10h-.47zM39 45h22v10H39V45zM29 57h22v10H29V57z"/><path fill="#F1CF76" d="M60.691 1.158l-8.129 30.336 3.863 1.035 8.138-30.368a49.373 49.373 0 0 0-3.872-1.003z"/><path fill="#F1ABA6" d="M88.264 39.895l-6.419-6.419-11.999 4.961 4.256 4.255-8.49 4.205 19.791.07-4.954-4.954 7.815-2.118zm-28.52 25.279l5.449 7.822-5.795 1.386 8.175 10.235 8.742-2.09-5.86-5.738 6.746-1.613-17.457-10.002zM30.93 29.854l-10.374-7.901-7.892 4.511 7.045 4.074-6.091 3.481 19.242 5.083-7.162-6.259 5.232-2.989zM11.818 62.988l6.137 3.31-7.174 4.001 7.952 4.289 10.582-7.73-5.271-2.843 7.312-6.114-19.538 5.087z"/><path d="M54.818 23.074l-.539 2.015 4.144-.011.54-2.015zm-1.297 4.842l-.54 2.015 4.144-.012.54-2.014zm2.595-9.685l-.54 2.015 4.145-.011.539-2.014zm2.578-9.621l-.54 2.015 4.145-.011.539-2.014zm1.298-4.842l-.54 2.015 4.144-.011.54-2.015zm-2.578 9.622l-.54 2.014 4.144-.011.54-2.014z" fill="#DEBF6D"/><path d="M64.685 81h10.071l-2.043-2h-9.626zM29 58.514l-2 .521v2.508l2-1.673zm47.315 24.013L75 81.239v1.603zM29 38.083v-2.354l-2-1.748v3.574zm56.402 8.884L85 46.564v.401zM77 35.479l-2 .827V43h-1.521l-4.039 2h13.996l-2-2H77zM13 71.495l2 1.079V69h11.382l2.738-2H29v-.312l-2-1.079V67H16.696L13 69.062zm0-44.836l2 1.156V25.13l-2 1.143zm12.699 6.186L28.926 31H18.903l-3.499 2h10.473zM61 73.999v2.388l2 2.505v-5.371zM61.017 67L63 69.848V69h3.422l-3.49-2z" fill="#E5A7A2"/><path fill="#324D5B" d="M50 29c11.598 0 21 9.402 21 21s-9.402 21-21 21-21-9.402-21-21 9.402-21 21-21z"/><path fill="#3C5663" d="M60 42a2 2 0 1 1 0 4 2 2 0 0 1 0-4z"/><path fill="#2F4856" d="M53 67c-11.598 0-21-9.402-21-21 0-3.828 1.041-7.406 2.831-10.497C31.227 39.274 29 44.373 29 50c0 11.598 9.402 21 21 21 7.77 0 14.537-4.23 18.17-10.504C64.346 64.496 58.971 67 53 67z"/></svg>