<svg xmlns="http://www.w3.org/2000/svg" width="100" height="100" viewBox="0 0 100 100"><path fill="#EDEDED" d="M50 0C22.387 0 0 22.386 0 50s22.387 50 50 50c27.614 0 50-22.386 50-50S77.614 0 50 0z"/><path fill="#E8B873" d="M48 53.999h4a2 2 0 0 1 2 2v28a2 2 0 0 1-2 2h-4a2 2 0 0 1-2-2v-28a2 2 0 0 1 2-2z"/><path fill="#D0A567" d="M46 69.999h8l-8 8v-8z"/><path fill="#EFC75E" d="M62 69.999H38a6 6 0 0 1-6-6v-36c0-6.627 5.373-12 12-12h12c6.627 0 12 5.373 12 12v36a6 6 0 0 1-6 6z"/><path fill="#E2574C" d="M32 60.999v3a6 6 0 0 0 6 6h24a6 6 0 0 0 6-6v-21H32v18z"/><path fill="#CBA950" d="M43.5 25.999a3.499 3.499 0 0 0-3.5 3.5v29c0 1.934 1.566 3.5 3.5 3.5s3.5-1.566 3.5-3.5v-29c0-1.934-1.566-3.5-3.5-3.5zm13 0a3.499 3.499 0 0 0-3.5 3.5v29c0 1.934 1.566 3.5 3.5 3.5s3.5-1.566 3.5-3.5v-29c0-1.934-1.566-3.5-3.5-3.5z"/><path d="M43.5 61.999c1.934 0 3.5-1.566 3.5-3.5v-15.5h-7v15.5c0 1.934 1.566 3.5 3.5 3.5zm9.5-19v15.5c0 1.934 1.566 3.5 3.5 3.5s3.5-1.566 3.5-3.5v-15.5h-7z" fill="#C04A41"/></svg>