<svg xmlns="http://www.w3.org/2000/svg" width="100" height="100" viewBox="0 0 100 100"><path fill="#324D5B" d="M50 0c27.614 0 50 22.386 50 50 0 27.615-22.386 50-50 50S0 77.615 0 50C0 22.387 22.386 0 50 0z"/><path fill="#EDEDED" d="M52 .051C51.336.025 50.671 0 50 0s-1.335.024-2 .051V30h4V.051z"/><path fill="#CACACA" d="M48 30h2V0c-.671 0-1.335.024-2 .051V30z"/><path fill="#5B717C" d="M89.816 80.235L77.625 54H22.438L10.201 80.257C19.334 92.252 33.76 100 50 100c16.25 0 30.684-7.757 39.816-19.765z"/><path fill="#3DB39E" d="M49.988 66.01c-13.966 0-28.997-3.784-28.997-12.094 0-15.402 13.008-27.932 28.997-27.932 15.988 0 28.996 12.53 28.996 27.932 0 8.31-15.031 12.094-28.996 12.094z"/><path fill="#37A18E" d="M30.991 51.916c0 8.31 15.031 12.094 28.997 12.094a75.8 75.8 0 0 0 8.268-.453c-5.292 1.652-11.883 2.453-18.268 2.453-13.966 0-28.997-3.784-28.997-12.094 0-15.142 12.573-27.498 28.19-27.912-10.65 4.137-18.19 14.189-18.19 25.912z"/><path fill="#F4F0D3" d="M78.562 56.229c-2.586-4.946-15.999-7.221-28.557-7.221-12.588 0-26.034 2.285-28.577 7.253 2.55 6.679 15.984 9.749 28.561 9.749 12.595 0 26.055-3.08 28.573-9.781z"/><path fill="#E6E2C7" d="M50.005 49.007c-12.588 0-26.034 2.285-28.577 7.253l.065.147c5.259-2.997 15.648-4.4 25.512-4.4 12.558 0 25.971 2.274 28.557 7.221a7.15 7.15 0 0 1-.634 1.268c1.748-1.212 3.019-2.631 3.634-4.268-2.586-4.946-16-7.221-28.557-7.221z"/><path fill="#EFC75E" d="M50 59a9 9 0 0 1-9-9c0-.201.029-.394.043-.591 2.934-.264 5.969-.401 8.962-.401 2.989 0 6.022.138 8.952.4.014.197.043.391.043.592a9 9 0 0 1-9 9z"/><path fill="#E3BD59" d="M53 57c-4.562 0-8.32-3.396-8.91-7.796-1.021.06-2.044.114-3.047.205-.014.197-.043.39-.043.591a9 9 0 0 0 15.392 6.334A8.979 8.979 0 0 1 53 57z"/></svg>