<svg xmlns="http://www.w3.org/2000/svg" width="100" height="100" viewBox="0 0 100 100"><path fill="#EFC75E" d="M50 0c27.614 0 50 22.386 50 50s-22.386 50-50 50S0 77.614 0 50 22.386 0 50 0z"/><path fill="#E2574C" d="M72 40H28c-5.522 0-10 4.478-10 10v38.413C26.671 95.645 37.826 100 50 100s23.328-4.355 32-11.587V50c0-5.522-4.478-10-10-10z"/><path fill="#CB4E44" d="M25 51v42.294c.98.567 1.979 1.108 3 1.61V51a4 4 0 0 1 4-4h-3a4 4 0 0 0-4 4z"/><path fill="#F19088" d="M71 46H29c-2.757 0-5 2.243-5 5v41.715c.656.4 1.324.784 2 1.154V51c0-1.654 1.346-3 3-3h42c1.654 0 3 1.346 3 3v42.869c.676-.37 1.344-.754 2-1.154V51c0-2.757-2.243-5-5-5z"/><path fill="#CB4E44" d="M18 50v38.413a50.115 50.115 0 0 0 3 2.305V50c0-5.522 4.478-10 10-10h-3c-5.522 0-10 4.478-10 10z"/><path fill="#F1ABA6" d="M34.5 55h31a1.5 1.5 0 0 1 0 3h-31a1.5 1.5 0 0 1 0-3z"/><path fill="#324D5B" d="M68.5 28H63v12h-3V28H40v12h-3V28h-5.5a2.5 2.5 0 1 1 0-5h37a2.5 2.5 0 1 1 0 5z"/><path fill="#F2F1EF" d="M58.664 69.334c-.771-.771-2.701-.088-3.625.836l-3.515 3.519c-.343-.318-8.883-3.363-9.189-3.058l-1.114 1.113a.785.785 0 0 0 0 1.112l6.242 4.896-2.46 2.461a7.406 7.406 0 0 0-.67.818l-.099-.098c-.156-.156-2.398-.439-2.555-.283l-.568.566a.4.4 0 0 0 0 .566l.28.279 1.501 1.499c-.298.742-.407 1.386-.12 1.674.288.288.933.178 1.676-.122l1.479 1.478.295.293a.4.4 0 0 0 .567 0l.568-.566c.156-.156-.127-2.394-.284-2.55l-.097-.097c.341-.247.627-.481.813-.667l2.46-2.462 4.898 6.222a.789.789 0 0 0 1.114 0l1.114-1.112c.308-.308-2.747-8.846-3.062-9.177l3.512-3.515c.926-.923 1.609-2.855.839-3.625z"/><path d="M37 28h3v3h-3zm23 0h3v3h-3z" fill="#233640"/><path fill="#2D4552" d="M70.949 26H29.05a2.5 2.5 0 0 0 2.45 2h37c1.21 0 2.218-.859 2.449-2z"/></svg>