<svg xmlns="http://www.w3.org/2000/svg" width="100" height="100" viewBox="0 0 100 100"><path fill="#2EA9D3" d="M50 0c27.614 0 50 22.386 50 50s-22.386 50-50 50S0 77.614 0 50 22.386 0 50 0z"/><path fill="#2998BD" d="M94.904 72H5.096c8.14 16.582 25.186 28 44.904 28s36.765-11.418 44.904-28z"/><path fill="#324D5B" d="M72 84h-2s-1.031-.287-1.031-1.034c0-2.249-2.164-3.966-4.469-3.966h-29c-2.314 0-4.473 1.734-4.473 3.996C31.027 83.721 30 84 30 84h-2a1 1 0 0 1-1-1v-9h46v9a1 1 0 0 1-1 1zM43 17h6v3h-6v-3z"/><path fill="#F2F1EF" d="M42 15h8a1 1 0 1 1 0 2h-8a1 1 0 1 1 0-2z"/><path fill="#324D5B" d="M45 50h2a3.001 3.001 0 0 1 0 6h-2a3.001 3.001 0 0 1 0-6z"/><path fill="#F2F1EF" d="M63.537 70.014c.493-.434.986-.88 1.438-1.336a24.397 24.397 0 0 0 7.012-17.125c0-3.16-.621-6.2-1.715-8.991-4.703-10.589-12.896-13.476-16.261-14.559.04.104-.079 5.778.002 5.833 1.287 1.52 7.714 3.191 10.983 10.865.837 2.095 1.287 4.418 1.287 6.852 0 2.878-.644 5.604-1.802 8.047l-2.166 3.443c-.43.542-.88 1.074-1.372 1.552a18.012 18.012 0 0 1-12.891 5.419h-.062 15.547zM26 69h48a3 3 0 0 1 0 6H26a3.001 3.001 0 0 1 0-6zm13-49h14a2 2 0 0 1 2 2v29a2 2 0 0 1-2 2H39a2 2 0 0 1-2-2V22a2 2 0 0 1 2-2z"/><path fill="#D9D8D7" d="M39 20a2 2 0 0 0-2 2v29a2 2 0 0 0 2 2h7V20h-7z"/><path fill="#fff" d="M54.5 26a5.5 5.5 0 1 1-.001 11.001A5.5 5.5 0 0 1 54.5 26z"/><path fill="#324D5B" d="M54.5 28c1.93 0 3.5 1.57 3.5 3.5S56.43 35 54.5 35 51 33.43 51 31.5s1.57-3.5 3.5-3.5m0-2a5.5 5.5 0 1 0 .001 11.001A5.5 5.5 0 0 0 54.5 26z"/><path fill="#D9D8D7" d="M74 73H26a2.992 2.992 0 0 1-2.816-2A2.962 2.962 0 0 0 23 72c0 1.656 1.344 3 3 3h48a3 3 0 0 0 3-3c0-.353-.072-.686-.184-1A2.99 2.99 0 0 1 74 73zM53 48H39a2 2 0 0 1-2-2v5a2 2 0 0 0 2 2h14a2 2 0 0 0 2-2v-5a2 2 0 0 1-2 2z"/><path fill="#C3C2C1" d="M39 48a2 2 0 0 1-2-2v5a2 2 0 0 0 2 2h7v-5h-7z"/></svg>