<svg xmlns="http://www.w3.org/2000/svg" width="100" height="100" viewBox="0 0 100 100"><path fill="#EFC75E" d="M50 0c27.614 0 50 22.386 50 50s-22.386 50-50 50S0 77.614 0 50 22.386 0 50 0z"/><path fill="#2B414D" d="M76 27H29a7 7 0 0 0-7 7v57.43A49.773 49.773 0 0 0 50 100c12.649 0 24.193-4.707 33-12.453V34a7 7 0 0 0-7-7z"/><path fill="#CCD0D2" d="M74 27H27a7 7 0 0 0-7 7v56.001A49.779 49.779 0 0 0 50 100c11.714 0 22.478-4.039 31-10.785V34a7 7 0 0 0-7-7z"/><path fill="#324D5B" d="M71 24.999H25a7 7 0 0 0-7 7v56.414C26.671 95.645 37.826 100 50 100a49.773 49.773 0 0 0 28-8.57V31.999a7 7 0 0 0-7-7z"/><path fill="#2D4552" d="M18 31.999v56.414a50.115 50.115 0 0 0 3 2.305V31.999a7 7 0 0 1 7-7h-3a7 7 0 0 0-7 7z"/><path fill="#99A6AD" d="M53.077 65.132h4.135c-1.611-2.124-4.045-3.839-6.889-4.479a16.891 16.891 0 0 1 2.754 4.479m1.438 6.702h5.151a12.12 12.12 0 0 0-1.581-5.375l-4.509.007a19.3 19.3 0 0 1 .939 5.368m-.941 6.694l4.511.006a12.112 12.112 0 0 0 1.581-5.374h-5.151a19.215 19.215 0 0 1-.941 5.368m-.497 1.335a16.94 16.94 0 0 1-2.754 4.479c2.844-.642 5.278-2.357 6.889-4.479h-4.135zm-1.433 0H48.16v4.796c1.42-1.267 2.617-2.905 3.484-4.796m1.553-6.703H48.16v5.374h4.019c.599-1.678.952-3.48 1.018-5.374m-1.018-6.699H48.16v5.374h5.037a17.78 17.78 0 0 0-1.018-5.374m-.535-1.329c-.866-1.891-2.063-3.529-3.483-4.797v4.797h3.483zm-8.284 0h3.482v-4.797c-1.418 1.268-2.616 2.906-3.482 4.797m-1.553 6.702h5.036v-5.373h-4.019a17.81 17.81 0 0 0-1.017 5.373m1.017 6.699h4.019V73.16h-5.036a17.804 17.804 0 0 0 1.017 5.373m.536 1.33c.865 1.89 2.063 3.528 3.482 4.796v-4.796H43.36zm-1.433 0h-4.135c1.611 2.122 4.045 3.838 6.89 4.479a16.89 16.89 0 0 1-2.755-4.479m-1.438-6.703h-5.151a12.103 12.103 0 0 0 1.581 5.374l4.51-.006a19.222 19.222 0 0 1-.94-5.368m.94-6.694l-4.51-.006a12.107 12.107 0 0 0-1.581 5.375h5.151c.063-1.891.39-3.697.94-5.369m-3.637-1.334h4.135a16.843 16.843 0 0 1 2.755-4.479c-2.845.64-5.279 2.355-6.89 4.479m-3.789 7.365c0-7.452 6.044-13.494 13.499-13.494S61 65.045 61 72.497c0 7.453-6.044 13.495-13.498 13.495-7.455 0-13.499-6.042-13.499-13.495M68 37.999H28a1 1 0 0 0-1 1v2a1 1 0 0 0 1 1h40a1 1 0 0 0 1-1v-2a1 1 0 0 0-1-1zm-5 8H33a1 1 0 0 0-1 1v2a1 1 0 0 0 1 1h30a1 1 0 0 0 1-1v-2a1 1 0 0 0-1-1z"/></svg>