<svg xmlns="http://www.w3.org/2000/svg" width="100" height="100" viewBox="0 0 100 100"><path fill="#324D5B" d="M50 0c27.614 0 50 22.386 50 50s-22.386 50-50 50S0 77.614 0 50 22.386 0 50 0z"/><path fill="#2B424D" d="M21 25v52h71.073A49.748 49.748 0 0 0 100 50c0-9.11-2.449-17.644-6.706-25H21z"/><path fill="#ECF0F1" d="M21 23v52h72.294A49.752 49.752 0 0 0 100 50a49.748 49.748 0 0 0-7.927-27H21z"/><path fill="#BFBFBF" d="M39.017 62.011h19.979v2.981H39.017v-2.981z"/><path fill="#26A6D1" d="M79.018 51.014h3.98v3.981h-3.98v-3.981z"/><path fill="#F4B459" d="M79.018 56.014h3.98v3.981h-3.98v-3.981z"/><path fill="#E2574C" d="M79.018 61.014h3.98v3.981h-3.98v-3.981z"/><path fill="#BFBFBF" d="M79.018 32.011v2.981h11.979v-2.981H79.018zm0 7.919h11.979v-2.919H79.018v2.919zm7.978 2.081h-7.979v2.919h7.979v-2.919zm-3.025 12.984h6.052v-3.981h-6.052v3.981zm0 5h6.052v-3.981h-6.052v3.981zm0 5h6.052v-3.981h-6.052v3.981z"/><path fill="#26A6D1" d="M48 32.988c-5.605.508-10 5.233-10 10.995s4.395 10.487 10 10.996V32.988z"/><path fill="#E2574C" d="M50 44.989v9.992a11.04 11.04 0 0 0 9.991-9.992H50z"/><path fill="#F4B459" d="M50 43.011V32.987c5.298.479 9.514 4.71 9.991 10.023H50z"/><path fill="#576E79" d="M92.073 23A50.235 50.235 0 0 0 79.535 9.663L21 23h71.073z"/><path fill="#233640" d="M28.334 85.799c-.622-.756-.622-.756-.205-3.562.712-3.141 1.356-1.191 2.374-7.457.854-5.262-.968-9.783-6.503-9.783-5.534 0-7.357 4.521-6.503 9.783 1.018 6.266 1.662 4.316 2.374 7.457.417 2.807.417 2.807-.205 3.562-.585.711-1.541 1.26-2.696 1.722a49.947 49.947 0 0 0 15.942 9.48H45s-.493-2.994-.599-3.535c-.889-4.572-13.119-4.087-16.067-7.667z"/><path fill="#44545C" d="M21 65.996c5.535 0 7.357 4.521 6.503 9.783-1.017 6.266-1.662 4.316-2.374 7.457-.417 2.807-.417 2.807.205 3.562 2.948 3.58 15.178 3.095 16.067 7.667.065.335.279 1.612.433 2.535H45s-.493-2.994-.599-3.535c-.889-4.572-13.119-4.087-16.067-7.667-.622-.756-.622-.756-.205-3.562.712-3.141 1.356-1.191 2.374-7.457.854-5.262-.968-9.783-6.503-9.783-1.595 0-2.872.385-3.875 1.046a9.42 9.42 0 0 1 .875-.046z"/><path fill="#233640" d="M79.509 84.898c-.503-.613-.503-.613-.166-2.895.576-2.552 1.099-.967 1.921-6.059.692-4.274-.783-7.948-5.264-7.948s-5.955 3.674-5.264 7.948c.822 5.092 1.345 3.507 1.921 6.059.337 2.281.337 2.281-.166 2.895-2.386 2.91-12.286 2.516-13.007 6.229-.085.44-.484 2.874-.484 2.874l7.53 3.188a49.964 49.964 0 0 0 17.151-10.238c-1.803-.504-3.392-1.1-4.172-2.053z"/><path fill="#44545C" d="M69.894 86.45c-2.954 1.073-7.221 1.574-9.268 3.073 2.983-1.083 7.265-1.578 9.268-3.073zm9.615-1.552c-.503-.613-.503-.613-.166-2.895.576-2.552 1.099-.967 1.921-6.059.692-4.274-.783-7.948-5.264-7.948-1.533 0-2.706.438-3.568 1.175A6.768 6.768 0 0 1 74 68.996c4.48 0 5.956 3.674 5.264 7.948-.822 5.092-1.345 3.507-1.921 6.059-.337 2.281-.337 2.281.166 2.895.873 1.064 2.754 1.686 4.821 2.229.455-.387.91-.774 1.352-1.177-1.804-.503-3.393-1.099-4.173-2.052z"/><path fill="#233640" d="M32.666 96.91A49.897 49.897 0 0 0 50 100a49.809 49.809 0 0 0 21.555-4.875c-4.135-1.032-8.038-2.157-9.76-4.228-.902-1.086-.902-1.086-.297-5.12 1.033-4.516 1.969-1.713 3.447-10.719 1.24-7.564-1.407-14.064-9.445-14.064s-10.685 6.5-9.445 14.064c1.478 9.006 2.414 6.203 3.447 10.719.605 4.034.605 4.034-.297 5.12-2.68 3.223-10.642 4.155-16.539 6.013z"/><path fill="#44545C" d="M61.795 90.897c-.902-1.086-.902-1.086-.297-5.12 1.033-4.516 1.969-1.713 3.447-10.719 1.24-7.564-1.407-14.064-9.445-14.064-2.055 0-3.752.43-5.128 1.188a12.687 12.687 0 0 1 2.128-.188c8.038 0 10.686 6.5 9.445 14.064-1.479 9.006-2.414 6.203-3.447 10.719-.605 4.034-.605 4.034.297 5.12 1.787 2.149 5.925 3.279 10.232 4.345a50.544 50.544 0 0 0 2.527-1.117c-4.134-1.032-8.037-2.157-9.759-4.228z"/></svg>