<svg xmlns="http://www.w3.org/2000/svg" width="100" height="100" viewBox="0 0 100 100"><path fill="#E2574C" d="M50 0c27.614 0 50 22.386 50 50s-22.386 50-50 50S0 77.614 0 50 22.386 0 50 0z"/><path fill="#DADFE1" d="M85 72H15l.001 13.695C24.021 94.54 36.37 100 50 100s25.979-5.46 34.999-14.305L85 72zm0-17H15l.002 19.217c0 3.746 6.366 6.782 14.219 6.782V81h39.373v-.001c9.062 0 16.404-3.503 16.404-7.825C84.998 82.55 85 55 85 55zm0-13H15s.002 23.549.002 15.217c0 3.746 6.082 6.782 13.583 6.782V64H67.86v-.001c9.468 0 17.139-3.503 17.139-7.825L85 42z"/><path d="M75 93.294a50.194 50.194 0 0 0 10-7.6V41H75v52.294zm-60-7.6a50.203 50.203 0 0 0 10 7.6V43H15v42.694z" fill="#E1E5E7"/><path fill="#F2F1EF" d="M71.688 33.497c-.959-4.761-9.27-8.497-19.5-8.497-7.917 0-14.695 2.023-17.82 5.239-.94-.143-1.92-.241-2.958-.241-5.437 0-9.844 2.322-9.844 4.914 0 .516.122 1.315.444 1.778-4.228 1.176-7.007 3.022-7.007 5.525 0 3.746 6.366 6.782 14.219 6.782V49h39.373v-.001c9.062 0 16.404-3.503 16.404-7.826-.001-3.816-5.732-6.985-13.311-7.676z"/><path fill="#9ECEC7" d="M53.5 54a1.5 1.5 0 1 0 .001 3.001A1.5 1.5 0 0 0 53.5 54zm0 17a1.5 1.5 0 1 0 .001 3.001A1.5 1.5 0 0 0 53.5 71zm12 17a1.5 1.5 0 1 0 .001 3.001A1.5 1.5 0 0 0 65.5 88zm-12 0a1.5 1.5 0 1 0 .001 3.001A1.5 1.5 0 0 0 53.5 88z"/><path fill="#3DB39E" d="M59.5 54a1.5 1.5 0 1 0 .001 3.001A1.5 1.5 0 0 0 59.5 54zm6 3a1.5 1.5 0 1 0-.001-3.001A1.5 1.5 0 0 0 65.5 57zm-6 14a1.5 1.5 0 1 0 .001 3.001A1.5 1.5 0 0 0 59.5 71zm6 0a1.5 1.5 0 1 0 .001 3.001A1.5 1.5 0 0 0 65.5 71zm-6 17a1.5 1.5 0 1 0 .001 3.001A1.5 1.5 0 0 0 59.5 88z"/><path fill="#C4C8CA" d="M45 53H30a1 1 0 0 0-1 1v1a1 1 0 0 0 1 1h15a1 1 0 0 0 1-1v-1a1 1 0 0 0-1-1zm0 4H30a1 1 0 0 0-1 1v1a1 1 0 0 0 1 1h15a1 1 0 0 0 1-1v-1a1 1 0 0 0-1-1zm0 13H30a1 1 0 0 0-1 1v1a1 1 0 0 0 1 1h15a1 1 0 0 0 1-1v-1a1 1 0 0 0-1-1zm0 4H30a1 1 0 0 0-1 1v1a1 1 0 0 0 1 1h15a1 1 0 0 0 1-1v-1a1 1 0 0 0-1-1zm0 13H30a1 1 0 0 0-1 1v1a1 1 0 0 0 1 1h15a1 1 0 0 0 1-1v-1a1 1 0 0 0-1-1zm0 4H30a1 1 0 0 0-1 1v1a1 1 0 0 0 1 1h15a1 1 0 0 0 1-1v-1a1 1 0 0 0-1-1z"/><path fill="#CECDCB" d="M50 32c-5.523 0-10 1.976-10 5s4.477 5 10 5 10-2.238 10-5c0-2.761-4.477-5-10-5zm4.916 3.845L49.2 38.974c-.238.13-.559.176-.869.156-.351.05-.738.009-1.012-.142l-2.251-1.232c-.414-.226-.414-.592 0-.818.413-.226 1.083-.226 1.496 0l1.687.924 5.174-2.832c.412-.226 1.079-.226 1.491 0 .412.224.412.59 0 .815z"/><path fill="#AEB2B4" d="M85 72l-.002 3.12v-1.946c0 4.322-7.342 7.825-16.404 7.825V81H29.221v-.001c-7.853 0-14.219-3.036-14.219-6.782v1.57V72H15v5.861c2.47 2.793 7.773 4.638 14.221 4.638l39.373.001c7.436-.001 13.668-2.251 16.406-5.541V72zm0-17l-.002 3.38v-2.206c0 4.322-7.671 7.825-17.139 7.825V64H28.584v-.001c-7.501 0-13.583-3.036-13.583-6.782v1.784V55H15v5.865c2.417 2.765 7.527 4.634 13.584 4.634l39.275.001c7.897-.001 14.347-2.217 17.141-5.537V55z"/><path d="M84.998 58.38v-2.206c0 3.157-4.102 5.87-9.998 7.107v1.555c4.548-.892 8.111-2.629 10-4.873V55h-.001l-.001 3.38zM25 65.269v-1.516c-5.759-.786-9.998-3.411-9.998-6.536v1.707V55H15v5.865c1.922 2.198 5.55 3.826 10 4.404zM84.998 74.896v-1.722c0 3.238-4.121 6.016-9.998 7.206v1.522c4.507-.876 8.098-2.658 10-4.943V72h-.001l-.001 2.896zM25 82.216v-1.521c-5.792-.857-9.998-3.434-9.998-6.479v1.5-3.717H15v5.861c1.905 2.156 5.499 3.741 10 4.356z" fill="#BFC2C4"/></svg>