<svg xmlns="http://www.w3.org/2000/svg" width="100" height="100" viewBox="0 0 100 100"><path fill="#3DB39E" d="M50 0c27.614 0 50 22.386 50 50s-22.386 50-50 50S0 77.614 0 50 22.386 0 50 0z"/><path fill="#324D5B" d="M31.357 26.277L.513 57.12c3.126 21.913 20.453 39.24 42.366 42.366l30.845-30.845c11.31-11.309 10.993-29.96-.706-41.659s-30.351-12.014-41.661-.705z"/><path fill="#283E49" d="M1.013 60.061C5.081 79.977 20.995 95.567 41.07 99.189L73 66.851 33.654 27 1.013 60.061z"/><path d="M29.117 43.025l-2.152-2.158a3.039 3.039 0 0 0-4.304 0l-5.74 5.753a3.055 3.055 0 0 0 0 4.313l2.152 2.158a3.04 3.04 0 0 0 4.305 0l5.739-5.753a3.052 3.052 0 0 0 0-4.313zm30.016 30.01l-2.157-2.152a3.055 3.055 0 0 0-4.314 0l-.588.587L28.59 47.986l-3.591 3.592 4.985 10.984c.981 1.768 2.205 3.389 3.635 4.818s3.051 2.653 4.818 3.636l9.685 4.395-1.214 1.211a3.04 3.04 0 0 0 0 4.305l2.158 2.152a3.056 3.056 0 0 0 4.314 0l5.752-5.739a3.04 3.04 0 0 0 .001-4.305z" fill="#1C2C33"/><path fill-rule="evenodd" clip-rule="evenodd" fill="#CDCDCD" d="M50.922 59.514l-9.936-9.935a2.006 2.006 0 0 0-2.838 0L26.083 61.643a2.009 2.009 0 0 0 0 2.84l9.935 9.935a2.007 2.007 0 0 0 2.839 0l12.065-12.063a2.012 2.012 0 0 0 0-2.841z"/><path fill="#949494" d="M28.479 59.246l1.505 3.316c.981 1.768 2.205 3.389 3.635 4.818s3.051 2.653 4.818 3.636l2.628 1.192 5.874-5.873-12.774-12.773-5.686 5.684z"/><path fill="#AEAEAE" d="M54.014 71.41L29.59 46.986l-3.591 3.592 4.985 10.984a21.8 21.8 0 0 0 8.453 8.454L50.421 75l3.593-3.59z"/><path d="M31.493 48.889l-1.903-1.903-3.591 3.592 1.652 3.64zm15.338 24.482l3.591 1.63 3.592-3.591-1.9-1.899z" fill="#949494"/><circle fill="#A6A6A6" cx="47.519" cy="60.484" r="1.5"/><circle fill="#A6A6A6" cx="40.516" cy="53.487" r="1.5"/><circle fill="#9C9C9C" cx="36.489" cy="63.488" r="1.511"/><path fill="#DFDFDF" d="M54.014 71.41l-2 2L27.59 48.986l2-2z"/><path d="M31.492 48.889l-1.902-1.903-2 2 2.223 2.224zM54.014 71.41l-1.903-1.902-2.321 1.679 2.224 2.223z" fill="#C3C3C3"/><path fill="#3A96B4" d="M60.133 72.035l-2.157-2.152a3.055 3.055 0 0 0-4.314 0l-5.753 5.739a3.04 3.04 0 0 0 0 4.305l2.158 2.152a3.056 3.056 0 0 0 4.314 0l5.752-5.739a3.04 3.04 0 0 0 0-4.305zM27.965 39.867a3.039 3.039 0 0 0-4.304 0l-5.74 5.753a3.056 3.056 0 0 0 0 4.314l2.152 2.158a3.04 3.04 0 0 0 4.305 0l5.739-5.753a3.055 3.055 0 0 0 0-4.314l-2.152-2.158z"/><path d="M47.964 79.982l2.055 2.05 10.055-10.055-2.053-2.05zM20.018 52.036L30.073 41.98l-2.05-2.054-10.055 10.055z" fill="#3589A4"/><path fill="#DBD8BD" d="M51.539 17.998c-7.369 0-14.652 2.75-20.182 8.279L.514 57.128a49.23 49.23 0 0 0 .518 3.018l32.093-32.101c4.867-4.867 11.407-7.547 18.414-7.547 7.389 0 14.389 2.931 19.711 8.253 5.197 5.197 8.127 12.034 8.249 19.25.122 7.185-2.557 13.887-7.543 18.873L39.867 98.972c.995.204 2.003.371 3.019.516l30.837-30.846c11.31-11.309 10.993-29.96-.706-41.659-5.979-5.98-13.775-8.985-21.478-8.985z"/></svg>