<svg xmlns="http://www.w3.org/2000/svg" width="100" height="100" viewBox="0 0 100 100"><path fill="#4681A0" d="M50 0c27.614 0 50 22.386 50 50s-22.386 50-50 50S0 77.614 0 50 22.386 0 50 0z"/><path fill="#3F7490" d="M65 87h1a3 3 0 0 0 3-3v-2.459c4.057-1.274 7-5.063 7-9.541V28c0-4.478-2.943-8.266-7-9.541V16a3 3 0 0 0-3-3h-1V2.292A49.982 49.982 0 0 0 50 0a49.822 49.822 0 0 0-19 3.747V13h-1a3 3 0 0 0-3 3v2.459c-4.057 1.275-7 5.063-7 9.541v44c0 4.478 2.943 8.267 7 9.541V84a3 3 0 0 0 3 3h1v9.253A49.84 49.84 0 0 0 50 100c5.227 0 10.265-.805 15-2.292V87zm0-72h1c.551 0 1 .449 1 1v2.051A10.007 10.007 0 0 0 66 18h-1v-3zm0 67h1c.338 0 .671-.018 1-.051V84c0 .552-.449 1-1 1h-1v-3zm-34 3h-1c-.551 0-1-.448-1-1v-2.051c.329.033.662.051 1 .051h1v3zm0-67h-1c-.338 0-.671.018-1 .051V16c0-.551.449-1 1-1h1v3z"/><path fill="#CCD0D2" d="M68 15c.551 0 1 .449 1 1v68c0 .552-.449 1-1 1H32c-.551 0-1-.448-1-1V16c0-.551.449-1 1-1h36m0-2H32a3 3 0 0 0-3 3v68a3 3 0 0 0 3 3h36a3 3 0 0 0 3-3V16a3 3 0 0 0-3-3z"/><path fill="#EFC75E" d="M67 2.969A49.896 49.896 0 0 0 50 0a49.9 49.9 0 0 0-17 2.969v94.062A49.9 49.9 0 0 0 50 100c5.97 0 11.692-1.05 17-2.969V2.969z"/><path fill="#E3BD59" d="M33 2.969v94.062A49.9 49.9 0 0 0 50 100V0a49.9 49.9 0 0 0-17 2.969z"/><path fill="#EDEDED" d="M32 18h36c5.523 0 10 4.478 10 10v44c0 5.523-4.477 10-10 10H32c-5.523 0-10-4.477-10-10V28c0-5.522 4.477-10 10-10z"/><path fill="#E1E1E1" d="M32 18c-5.523 0-10 4.478-10 10v44c0 5.523 4.477 10 10 10h18V18H32z"/><path fill="#324D5B" d="M32 21h36a7 7 0 0 1 7 7v44a7 7 0 0 1-7 7H32a7 7 0 0 1-7-7V28a7 7 0 0 1 7-7z"/><path fill="#2F4956" d="M50 21H32a7 7 0 0 0-7 7v44a7 7 0 0 0 7 7h18V21z"/><circle fill="#EDEDED" cx="50" cy="51" r="6"/><circle fill="#93D3E8" cx="62.5" cy="43.5" r="4.5"/><circle fill="#3DB39E" cx="37.5" cy="43.5" r="4.5"/><circle fill="#E2574C" cx="50" cy="37" r="5"/><circle fill="#26A6D1" cx="62.5" cy="56.5" r="4.5"/><circle fill="#93D3E8" cx="37.5" cy="56.5" r="4.5"/><circle fill="#EFC75E" cx="50" cy="65" r="5"/><circle fill="#EFC75E" cx="61" cy="33" r="3"/><circle fill="#26A6D1" cx="39" cy="33" r="3"/><circle fill="#3DB39E" cx="61" cy="67" r="3"/><circle fill="#E2574C" cx="39" cy="67" r="3"/><path fill="#2A424D" d="M28 72V28a7 7 0 0 1 7-7h-3a7 7 0 0 0-7 7v44a7 7 0 0 0 7 7h3a7 7 0 0 1-7-7z"/></svg>