<svg xmlns="http://www.w3.org/2000/svg" width="100" height="100" viewBox="0 0 100 100"><path fill="#EDEDED" d="M50 0C22.387 0 0 22.386 0 50.001 0 77.614 22.387 100 50 100c27.614 0 50-22.386 50-49.999C100 22.386 77.614 0 50 0z"/><path fill="#D5D5D5" d="M44.898 2.999h10.116l9.985 70-15.021 13-14.978-13 9.898-70z"/><path fill="#DAD8D8" d="M50 0c6.169 0 12.967 1.457 18.422 3.5L50 18.009 31.641 3.484C37.096 1.441 43.831 0 50 0z"/><path fill="#E2574C" d="M44.898.999h10.116l9.985 70-15.021 13-14.978-13 9.898-70z"/><path fill="#CB4E44" d="M49.979 83.999L50 83.98V.999h-5.102l-9.898 70zm-5.479-25h11a1.5 1.5 0 0 1 0 3h-11a1.5 1.5 0 0 1 0-3z"/><path fill="#B6463D" d="M50 58.999h-5.5a1.5 1.5 0 0 0 0 3H50v-3z"/><path fill="#D15248" d="M43.249 12.667L50 18.009l6.689-5.269L55.015.999H44.898z"/><path fill="#BE4B41" d="M44.898.999l-1.649 11.668L50 18.009V.999z"/><path fill="#EC655B" d="M50 0a49.874 49.874 0 0 1 17.529 3.167L50 17.009 32.471 3.167A49.874 49.874 0 0 1 50 0z"/><path fill="#EFC75E" d="M44.5 57.999h11a1.5 1.5 0 0 1 0 3h-11a1.5 1.5 0 0 1 0-3z"/><path fill="#D5D5D5" d="M99.176 40.999H84v5h15.826a49.821 49.821 0 0 0-.65-5z"/><path fill="#fff" d="M97.721 35.039l-9.801 1.4A4.567 4.567 0 0 0 84 40.96v.039h15.176a49.728 49.728 0 0 0-1.455-5.96z"/></svg>