<svg xmlns="http://www.w3.org/2000/svg" width="100" height="100" viewBox="0 0 100 100"><path fill="#324D5B" d="M50 0c27.614 0 50 22.386 50 50s-22.386 50-50 50S0 77.614 0 50 22.386 0 50 0z"/><path fill="#475F6C" d="M95.161 71.476C83.169 66.196 67.57 63 50.5 63c-17.461 0-33.391 3.341-45.488 8.837C13.119 88.508 30.216 100 50 100c19.927 0 37.126-11.658 45.161-28.524z"/><path fill="#ccc" d="M70.911 66.767l-17.366-9.951L62.995 51 50 43.004 37.005 51l9.813 6.039-16.975 9.728a1.419 1.419 0 0 0 0 2.468L50.377 81l20.534-11.766a1.419 1.419 0 0 0 0-2.467zM41.066 51L50 45.669 58.934 51 50 56.331 41.066 51zm9.311 26.75L33.092 68l16.455-9.282.453.279.813-.501L67.663 68l-17.286 9.75z"/><path fill="#F2F1EF" d="M75.732 75.971l-23-48.96a1.998 1.998 0 0 0-.909-.826 1.996 1.996 0 1 0-3.47-.317 1.978 1.978 0 0 0-1.085.884l-23 48.497a2 2 0 1 0 3.464 2L48 34.514V83a2 2 0 0 0 4 0V34.847L72.268 77.99c.553.966 1.775 1.297 2.732.739s1.284-1.793.732-2.758z"/><path fill="#EFC75E" d="M50 18a5 5 0 1 1 0 10 5 5 0 0 1 0-10z"/><path d="M30.13 54.979l.857-1.826C21.358 46.803 15 35.897 15 23.5c0-3.75.585-7.362 1.663-10.755a50.86 50.86 0 0 0-2.788 2.707A37.63 37.63 0 0 0 13 23.5c0 13.198 6.824 24.795 17.13 31.479zm30.821-18.986l.875 1.862C66.193 34.374 69 29.019 69 23c0-10.493-8.507-19-19-19s-19 8.507-19 19c0 6.019 2.807 11.374 7.174 14.855l.875-1.862C35.353 32.874 33 28.214 33 23c0-9.389 7.611-17 17-17s17 7.611 17 17c0 5.214-2.353 9.874-6.049 12.993zM76 23c0 8.829-4.41 16.617-11.138 21.316l.868 1.848C73.136 41.127 78 32.632 78 23a27.876 27.876 0 0 0-6.809-18.289 49.842 49.842 0 0 0-4.931-1.992C72.196 7.484 76 14.796 76 23zM34.27 46.164l.869-1.848C28.411 39.617 24 31.829 24 23c0-8.204 3.804-15.516 9.739-20.281a49.842 49.842 0 0 0-4.931 1.992A27.88 27.88 0 0 0 22 23c0 9.632 4.865 18.127 12.27 23.164zm53.126-29.339a49.795 49.795 0 0 0-2.683-2.793A35.504 35.504 0 0 1 86 23.5c0 12.724-6.698 23.878-16.756 30.146l.857 1.825C80.838 48.874 88 37.025 88 23.5c0-2.279-.215-4.507-.604-6.675zM50 14a9 9 0 0 1 9 9 8.946 8.946 0 0 1-1.691 5.238l.947 2.015A10.947 10.947 0 0 0 61 23c0-6.075-4.925-11-11-11s-11 4.925-11 11c0 2.782 1.041 5.316 2.745 7.253l.946-2.015A8.946 8.946 0 0 1 41 23a9 9 0 0 1 9-9z" fill="#315F73"/><path fill="#D7B354" d="M51 26a5 5 0 0 1-5-5c0-.397.058-.778.146-1.149A4.95 4.95 0 0 0 45 23a4.992 4.992 0 1 0 9.854 1.149C53.938 25.27 52.562 26 51 26z"/></svg>