<svg xmlns="http://www.w3.org/2000/svg" width="100" height="100" viewBox="0 0 100 100"><path fill="#EDEDED" d="M50 0c27.614 0 50 22.386 50 50s-22.386 50-50 50S0 77.614 0 50 22.386 0 50 0z"/><path fill="#324D5B" d="M71 52c-4.971 0-9 4.029-9 9s4.029 9 9 9 9-4.029 9-9-4.029-9-9-9zm-46 0c-4.971 0-9 4.029-9 9s4.029 9 9 9 9-4.029 9-9-4.029-9-9-9z"/><path fill="#B5BCC0" d="M71 56c-2.762 0-5 2.238-5 5s2.238 5 5 5 5-2.238 5-5-2.238-5-5-5zm-46 0c-2.762 0-5 2.238-5 5s2.238 5 5 5 5-2.238 5-5-2.238-5-5-5z"/><path fill="#E2574C" d="M86.97 61.564l.037-.088c0-8.844-7.017-17.154-15.748-17.496l-15.523-.001s-1.156-.514-1.739 2.277v2.96a1.362 1.362 0 0 0-.008.524c.113.601.555 1.036 1.312 1.295 1.658.556 2.683 1.74 2.734 3.508a4.224 4.224 0 0 1-1.145 3.038 4.205 4.205 0 0 1-2.95 1.332l-.127.057h-5.53l-.049-.021c-5.613 0-10.181-4.212-10.214-9.547l3.464-14.796a1.324 1.324 0 0 0-1.289-1.625h-7.2s-1.149-.51-3.249 5.729l-1.705 5.353c-1.54 0-6.241.276-10.434 4.467-.5.501-.774 1.047-.415 1.658l7.262 12.743 9.379.069h51.859c.731 0 1.322-.596 1.322-1.327l-.044-.109z"/><path fill="#EE7269" d="M66.5 53h9a1.5 1.5 0 0 0 0-3h-9a1.5 1.5 0 0 0 0 3zm9 1h-9a1.5 1.5 0 0 0 0 3h9a1.5 1.5 0 0 0 0-3z"/><path fill="#324D5B" d="M37.984 32.982v-2.826c0-1.34.838-2.181 2.173-2.181H44.7c.731 0 1.323-.781 1.323-1.515 0-.734-.592-1.452-1.323-1.452h-4.662l-.026.01a5.077 5.077 0 0 0-5.017 5.075v2.889h2.989zM27 32c2.762 0 5 2.015 5 4.5S29.762 41 27 41v-9z"/><path fill="#EFC75E" d="M31 47a3 3 0 1 1 0 6 3 3 0 0 1 0-6z"/><path fill="#D5D5D5" d="M95.828 70H4.172C11.889 87.656 29.499 100 50 100s38.111-12.344 45.828-30z"/><path d="M55.301 51.036c1.658.556 2.683 1.74 2.734 3.508a4.217 4.217 0 0 1-.435 1.97 4.223 4.223 0 0 0 2.435-3.97c-.052-1.768-1.076-2.952-2.734-3.508-.758-.259-1.199-.694-1.312-1.295a1.361 1.361 0 0 1 .008-.524v-2.96l.066-.277h-.327s-1.156-.514-1.739 2.277v2.96a1.362 1.362 0 0 0-.008.524c.113.601.554 1.036 1.312 1.295zm31.706 10.441L86.984 61H35.833l-9.379-.066-7.262-12.744a1.041 1.041 0 0 1-.062-1c-.511.396-1.021.839-1.523 1.342-.5.501-.774 1.047-.415 1.658l7.262 12.743 9.379.067h51.859c.731 0 1.322-.596 1.322-1.327l-.044-.108.037-.088z" fill="#CB4E44"/><path fill="#324D5B" d="M54.5 36h14a4.5 4.5 0 0 1 0 9h-14a4.5 4.5 0 0 1 0-9z"/><path d="M75.5 56h-9a1.496 1.496 0 0 1-1.408-1 1.483 1.483 0 0 0-.092.5 1.5 1.5 0 0 0 1.5 1.5h9a1.5 1.5 0 0 0 1.5-1.5c0-.176-.036-.343-.092-.5-.207.581-.756 1-1.408 1zm0-4h-9a1.496 1.496 0 0 1-1.408-1 1.483 1.483 0 0 0-.092.5 1.5 1.5 0 0 0 1.5 1.5h9a1.5 1.5 0 0 0 1.5-1.5c0-.176-.036-.343-.092-.5-.207.581-.756 1-1.408 1z" fill="#D1645C"/><path fill="#2D4552" d="M29 32.38a5.438 5.438 0 0 0-2-.38v9c.712 0 1.387-.138 2-.38v-8.24z"/><path fill="#CB4E44" d="M31 47a3 3 0 1 1 0 6 3 3 0 0 1 0-6m0-1c-2.206 0-4 1.794-4 4s1.794 4 4 4 4-1.794 4-4-1.794-4-4-4z"/><path fill="#2B424D" d="M68.5 42h-14c-1.957 0-3.604-1.256-4.225-3A4.469 4.469 0 0 0 50 40.5a4.5 4.5 0 0 0 4.5 4.5h14a4.5 4.5 0 0 0 4.5-4.5c0-.529-.108-1.029-.275-1.5-.621 1.744-2.268 3-4.225 3z"/></svg>