<svg xmlns="http://www.w3.org/2000/svg" width="100" height="100" viewBox="0 0 100 100"><path fill="#82D2ED" d="M50 0c27.614 0 50 22.386 50 50s-22.386 50-50 50S0 77.614 0 50 22.386 0 50 0z"/><path fill="#324D5B" d="M23 23v54a4 4 0 0 0 4 4h62.215C95.961 72.478 100 61.714 100 50s-4.039-22.478-10.785-31H27a4 4 0 0 0-4 4z"/><path fill="#2B414D" d="M46 26H23v2h22v44H23v2h70.869C97.775 66.875 100 58.698 100 50s-2.225-16.875-6.131-24H46z"/><path fill="#EDEDED" d="M56 35h-2v2a1 1 0 1 1-2 0v-3a1 1 0 0 1 1-1h3a1 1 0 1 1 0 2zm-3 27a1 1 0 0 1 1 1v2h2a1 1 0 1 1 0 2h-3a1 1 0 0 1-1-1v-3a1 1 0 0 1 1-1z"/><g fill="#3A5461"><circle cx="34" cy="50" r="6"/><path d="M32 41h4a1 1 0 0 0 1-1v-2a1 1 0 0 0-1-1h-4a1 1 0 0 0-1 1v2a1 1 0 0 0 1 1zm0-6h4a1 1 0 0 0 1-1v-2a1 1 0 0 0-1-1h-4a1 1 0 0 0-1 1v2a1 1 0 0 0 1 1zm4 30h-4a1 1 0 0 0-1 1v2a1 1 0 0 0 1 1h4a1 1 0 0 0 1-1v-2a1 1 0 0 0-1-1zm0-6h-4a1 1 0 0 0-1 1v2a1 1 0 0 0 1 1h4a1 1 0 0 0 1-1v-2a1 1 0 0 0-1-1z"/></g><path fill="#2B414D" d="M34 48a2 2 0 1 1-.001 4.001A2 2 0 0 1 34 48z"/></svg>