<svg xmlns="http://www.w3.org/2000/svg" width="100" height="100" viewBox="0 0 100 100"><path fill="#3DB39E" d="M50 0c27.614 0 50 22.386 50 50s-22.386 50-50 50S0 77.614 0 50 22.386 0 50 0z"/><path fill="#37A18E" d="M50.189 41.941a1.99 1.99 0 0 1-2.436-1.401l-6.69-24.877a1.98 1.98 0 0 1 1.406-2.427l27.895-7.447a50.18 50.18 0 0 1 24.069 24.34L50.189 41.941zM28 71c-3.011 0-5.809-.896-8.158-2.423l-3.487 3.487a3.148 3.148 0 0 1-4.451-4.451l3.495-3.496A14.907 14.907 0 0 1 13 56c0-8.284 6.716-15 15-15s15 6.716 15 15-6.716 15-15 15z"/><path fill="#324D5B" d="M51.189 40.941a1.99 1.99 0 0 1-2.436-1.401l-6.69-24.877a1.98 1.98 0 0 1 1.406-2.427l27.895-7.447a50.18 50.18 0 0 1 24.069 24.34L51.189 40.941z"/><path fill="#F2F1EF" d="M31 68c-3.011 0-5.809-.896-8.158-2.423l-3.487 3.487a3.148 3.148 0 0 1-4.451-4.451l3.495-3.496A14.907 14.907 0 0 1 16 53c0-8.284 6.716-15 15-15s15 6.716 15 15-6.716 15-15 15z"/><path fill="#9B481A" d="M31 42c6.075 0 11 4.925 11 11s-4.925 11-11 11-11-4.925-11-11 4.925-11 11-11z"/><path fill="#E4E7E7" d="M62.905 98.311L49.286 74.747a2.017 2.017 0 0 1 .74-2.759l36.655-20.717a2.024 2.024 0 0 1 2.763.74l7.984 13.813c-5.283 15.843-18.27 28.155-34.523 32.487z"/><path d="M97.323 65.643l-1.02-1.766-39.991 23.026 1.021 1.767zM52.229 79.838l1.02 1.766 39.99-23.027-1.02-1.765zm38.616-1.047a50.26 50.26 0 0 0 2.396-3.733L60.396 93.969l1.021 1.767 29.428-16.945z" fill="#D7D8D8"/><path fill="#CCD0D2" d="M52.908 67.735c-.489-.828-1.473-1.167-2.198-.758s-.917 1.413-.429 2.241l2.274 3.854c.489.827 1.474 1.166 2.198.757.726-.409.918-1.413.429-2.241l-2.274-3.853zm5.254-2.966c-.489-.828-1.473-1.167-2.198-.757-.726.408-.918 1.412-.429 2.24l2.274 3.854c.489.827 1.473 1.166 2.198.757.726-.41.918-1.413.429-2.24l-2.274-3.854zm5.254-2.967c-.489-.828-1.474-1.167-2.198-.757-.726.409-.918 1.412-.429 2.24l2.274 3.854c.489.828 1.473 1.166 2.198.757s.918-1.413.429-2.24l-2.274-3.854zm5.254-2.967c-.489-.827-1.474-1.167-2.198-.757-.726.409-.918 1.412-.429 2.24l2.274 3.854c.488.828 1.473 1.166 2.198.757s.917-1.413.429-2.24l-2.274-3.854zm5.254-2.967c-.489-.827-1.474-1.167-2.199-.757-.725.41-.917 1.412-.428 2.24l2.274 3.854c.488.828 1.473 1.167 2.198.758.726-.41.917-1.413.429-2.24l-2.274-3.855zm5.254-2.966c-.489-.828-1.474-1.168-2.199-.758-.725.41-.917 1.412-.428 2.24l2.274 3.854c.488.828 1.473 1.167 2.198.758.726-.41.917-1.413.429-2.24l-2.274-3.854zm7.528.887l-2.275-3.854c-.488-.828-1.473-1.167-2.198-.758-.725.41-.917 1.413-.428 2.24l2.274 3.854c.488.828 1.473 1.167 2.198.758.726-.41.917-1.413.429-2.24z"/><path fill="#8B4117" d="M29 45c6.075 0 11 4.925 11 11 0 1.605-.352 3.126-.97 4.502A10.954 10.954 0 0 0 42 53c0-6.075-4.925-11-11-11-4.47 0-8.309 2.67-10.03 6.499A10.96 10.96 0 0 1 29 45z"/><path fill="#D0D3D3" d="M50.857 73.747a2.011 2.011 0 0 1 .289-2.392l-1.12.633a2.017 2.017 0 0 0-.74 2.759L62.905 98.31c.642-.171 1.27-.376 1.901-.572L50.857 73.747z"/><path d="M54.88 80.665l-1.026-1.764-1.625.937 1.02 1.766zm8.204 14.11l-1.025-1.763-1.663.957 1.021 1.766zm-4.102-7.054l-1.025-1.764-1.645.946 1.021 1.767z" fill="#B9BCBE"/><path d="M65.69 65.655l-.146-.248-2.612 1.508.132.224c.468.792 1.385 1.127 2.099.799l.203-.117c.633-.446.788-1.382.324-2.166zm-12.415 8.128c.472.266 1.025.302 1.479.046.726-.409.918-1.413.429-2.241l-.088-.148-2.379 1.374.559.969zm4.535-3.678c.489.827 1.473 1.166 2.198.757.726-.41.918-1.413.429-2.24l-.117-.198-2.612 1.508.102.173zm28.896-16.316l-.265-.447-2.611 1.508.249.422c.328.557.879.885 1.426.921l1.315-.76c.229-.479.208-1.098-.114-1.644zm-15.762 8.899l-.176-.298-2.612 1.508.161.273c.408.692 1.161 1.034 1.821.893l.7-.404c.443-.49.51-1.289.106-1.972zm10.508-5.932l-.234-.397-2.612 1.508.22.372c.35.593.953.929 1.534.925l1.156-.667c.281-.49.281-1.157-.064-1.741zm-5.254 2.967l-.205-.349-2.612 1.509.19.322c.374.634 1.038.978 1.654.922l.982-.567c.341-.494.358-1.215-.009-1.837z" fill="#B7BBBD"/><path fill="#324D5B" d="M55.57.316c-1.885 3.434-3.762 6.73-1.588 10.695l1.941-1.18c-1.792-3.263-.062-5.968 1.738-9.247A51.01 51.01 0 0 0 55.57.316z"/><path d="M72.426 22.088c.145.542.7.864 1.241.719l2.937-.79c.541-.145.861-.703.717-1.245l-.787-2.947a1.013 1.013 0 0 0-1.241-.719l-2.937.79a1.019 1.019 0 0 0-.717 1.246l.787 2.946zm-12.867-4.962l-.787-2.947a1.013 1.013 0 0 0-1.241-.719l-2.937.789a1.019 1.019 0 0 0-.717 1.246l.787 2.946c.145.543.7.864 1.241.719l2.937-.789c.541-.145.861-.703.717-1.245zm15.663-4.211l-.787-2.947a1.013 1.013 0 0 0-1.241-.719l-2.937.79a1.017 1.017 0 0 0-.717 1.245l.787 2.947c.145.542.7.864 1.241.719l2.937-.789c.541-.146.861-.704.717-1.246zm12.867 4.962c.106.402.439.68.824.739a48.433 48.433 0 0 0-.921-1.103l.097.364zm-4.965-2.876l-2.938.79c-.54.145-.861.703-.717 1.245l.787 2.947c.146.542.701.864 1.241.719l2.938-.79c.54-.146.861-.703.716-1.245l-.786-2.947a1.013 1.013 0 0 0-1.241-.719zm-36.292 5.546c.146.542.701.864 1.241.719l2.938-.79a1.02 1.02 0 0 0 .717-1.246l-.787-2.947a1.014 1.014 0 0 0-1.241-.719l-2.938.789a1.02 1.02 0 0 0-.717 1.246l.787 2.948zm30.54-11.369l.786 2.947c.146.542.701.864 1.241.719l2.938-.789.129-.064a50.255 50.255 0 0 0-4.895-3.697.998.998 0 0 0-.199.884zM53.109 28.334c.54-.145.861-.703.716-1.245l-.786-2.946a1.015 1.015 0 0 0-1.242-.72l-2.937.79c-.54.146-.861.703-.717 1.245l.787 2.947c.146.542.701.865 1.241.719l2.938-.79zm38.057-2.862l-.787-2.946a1.013 1.013 0 0 0-1.241-.719L66.622 27.86a1.019 1.019 0 0 0-.717 1.246l.787 2.947c.145.542.7.864 1.241.719l22.516-6.053a1.02 1.02 0 0 0 .717-1.247zm-26.572-1.279c.145.543.701.865 1.241.72l2.937-.79c.541-.145.862-.703.717-1.245l-.787-2.947a1.012 1.012 0 0 0-1.24-.719l-2.938.79c-.54.145-.861.702-.717 1.245l.787 2.946zm-10.698 7.088l-2.937.789a1.019 1.019 0 0 0-.717 1.246l.787 2.946c.145.542.7.864 1.241.719l2.937-.789c.541-.146.861-.703.717-1.246L55.137 32a1.013 1.013 0 0 0-1.241-.719zm2.867-4.982c.145.542.7.864 1.241.719l2.937-.79c.541-.146.861-.703.717-1.245l-.787-2.947a1.013 1.013 0 0 0-1.241-.719l-2.937.79a1.017 1.017 0 0 0-.717 1.245l.787 2.947zM67.391 15.02l-.787-2.947a1.014 1.014 0 0 0-1.241-.719l-2.938.789c-.54.146-.861.703-.716 1.246l.786 2.947c.146.542.701.864 1.241.719l2.938-.789a1.02 1.02 0 0 0 .717-1.246zM58.86 34.157c.146.542.701.864 1.242.719l2.937-.789c.541-.146.861-.703.717-1.246l-.787-2.947a1.014 1.014 0 0 0-1.241-.719l-2.938.79c-.54.145-.861.703-.716 1.245l.786 2.947z" fill="#2D4552"/><path d="M73.426 21.088c.145.542.7.864 1.241.719l2.937-.79c.541-.145.861-.703.717-1.245l-.787-2.947a1.013 1.013 0 0 0-1.241-.719l-2.937.79a1.019 1.019 0 0 0-.717 1.246l.787 2.946zm2.796-9.173l-.787-2.947a1.013 1.013 0 0 0-1.241-.719l-2.937.79a1.017 1.017 0 0 0-.717 1.245l.787 2.947c.145.542.7.864 1.241.719l2.937-.789c.541-.146.861-.704.717-1.246zm2.936-.79c.146.542.701.864 1.241.719l1.448-.389a50.158 50.158 0 0 0-3.259-2.465l.57 2.135zm-31.326 8.422c.146.542.701.864 1.241.719l2.938-.79a1.02 1.02 0 0 0 .717-1.246l-.787-2.947a1.014 1.014 0 0 0-1.241-.719l-2.938.789a1.02 1.02 0 0 0-.717 1.246l.787 2.948zm36.895-5.502a.989.989 0 0 0-.603-.044l-2.938.79c-.54.145-.861.703-.717 1.245l.787 2.947c.146.542.701.864 1.241.719l2.938-.79c.54-.146.861-.703.716-1.245l-.786-2.947-.062-.125-.576-.55zm-24.168 2.081l-.787-2.947a1.013 1.013 0 0 0-1.241-.719l-2.937.789a1.019 1.019 0 0 0-.717 1.246l.787 2.946c.145.543.7.864 1.241.719l2.937-.789c.541-.145.861-.703.717-1.245zm31.607 8.346l-.607-2.275c-.319-.476-.654-.94-.989-1.405a1.005 1.005 0 0 0-.432.015L67.622 26.86a1.019 1.019 0 0 0-.717 1.246l.787 2.947c.145.542.7.864 1.241.719l22.516-6.053a1.02 1.02 0 0 0 .717-1.247zm-26.572-1.279c.145.543.701.865 1.241.72l2.937-.79c.541-.145.862-.703.717-1.245l-.787-2.947a1.012 1.012 0 0 0-1.24-.719l-2.938.79c-.54.145-.861.702-.717 1.245l.787 2.946zm2.797-9.173l-.787-2.947a1.014 1.014 0 0 0-1.241-.719l-2.938.789c-.54.146-.861.703-.716 1.246l.786 2.947c.146.542.701.864 1.241.719l2.938-.789a1.02 1.02 0 0 0 .717-1.246zM54.896 30.281l-2.937.789a1.019 1.019 0 0 0-.717 1.246l.787 2.946c.145.542.7.864 1.241.719l2.937-.789c.541-.146.861-.703.717-1.246L56.137 31a1.013 1.013 0 0 0-1.241-.719zm-3.724-2.157l2.938-.79c.54-.145.861-.703.716-1.245l-.786-2.946a1.015 1.015 0 0 0-1.242-.72l-2.937.79c-.54.146-.861.703-.717 1.245l.787 2.947c.145.542.701.865 1.241.719zm8.688 5.033c.146.542.701.864 1.242.719l2.937-.789c.541-.146.861-.703.717-1.246l-.787-2.947a1.014 1.014 0 0 0-1.241-.719l-2.938.79c-.54.145-.861.703-.716 1.245l.786 2.947zm-2.097-7.858c.145.542.7.864 1.241.719l2.937-.79c.541-.146.861-.703.717-1.245l-.787-2.947a1.013 1.013 0 0 0-1.241-.719l-2.937.79a1.017 1.017 0 0 0-.717 1.245l.787 2.947z" fill="#475F6C"/></svg>