<svg xmlns="http://www.w3.org/2000/svg" width="100" height="100" viewBox="0 0 100 100"><path fill="#E2574C" d="M50 0c27.614 0 50 22.386 50 50s-22.386 50-50 50S0 77.614 0 50 22.386 0 50 0z"/><path fill="#CD4F45" d="M73.979 38.289a1.847 1.847 0 0 0-1.672.502L58.084 53.295c-1.434 1.436-6.255.387-9.5-.879-1.268-3.245-2.316-8.067-.886-9.5l14.575-14.154a1.83 1.83 0 0 0 .502-1.668 1.842 1.842 0 0 0-1.121-1.335 24.432 24.432 0 0 0-26.32 5.422 24.329 24.329 0 0 0-6.568 22.598c-.23 3.94-3.812 8.557-5.664 10.44L8.87 78.42a50.24 50.24 0 0 0 13.627 13.331l13.557-13.532c1.901-1.873 7.035-5.404 10.946-5.809.59.038 1.811.119 2.082.179l-.002-.023c7.626 1.108 15.329-1.382 20.808-6.854a24.39 24.39 0 0 0 5.428-26.299 1.839 1.839 0 0 0-1.337-1.124z"/><path fill="#EDEDED" d="M73.979 37.289a1.847 1.847 0 0 0-1.672.502L58.084 52.295c-1.434 1.436-6.255.387-9.5-.879-1.268-3.245-2.316-8.067-.886-9.5l14.575-14.154a1.83 1.83 0 0 0 .502-1.668 1.842 1.842 0 0 0-1.121-1.335 24.432 24.432 0 0 0-26.32 5.422 24.329 24.329 0 0 0-6.568 22.598c-.23 3.94-3.812 8.557-5.664 10.44L8.458 77.83a50.265 50.265 0 0 0 13.435 13.523l14.16-14.135c1.901-1.873 7.035-5.404 10.946-5.809.59.038 1.811.119 2.082.179l-.002-.023c7.626 1.108 15.329-1.382 20.808-6.854a24.39 24.39 0 0 0 5.428-26.299 1.836 1.836 0 0 0-1.336-1.123z"/><path d="M76.862 44.556c.127 1.086.187 2.175.17 3.26a24.381 24.381 0 0 0-1.717-8.403 1.836 1.836 0 0 0-3.009-.621L58.084 53.295c-1.434 1.436-6.255.387-9.5-.879-.111-.284-.22-.581-.327-.887L14.541 85.246a50.18 50.18 0 0 0 7.353 6.107l14.16-14.135c1.901-1.873 7.035-5.404 10.946-5.809.59.038 1.811.119 2.082.179l-.002-.023c7.626 1.108 15.329-1.382 20.808-6.854a24.373 24.373 0 0 0 6.974-20.155zm-.868-4.181l-.146-.465.146.465zm.813 3.729zm-.321-1.814l-.174-.754.174.754z" fill="#E1E1E1"/><path fill="#F4F4F4" d="M35.334 31.181a24.432 24.432 0 0 1 26.32-5.422c.534.213.931.67 1.083 1.224.085-.285.101-.589.038-.889a1.842 1.842 0 0 0-1.121-1.335 24.432 24.432 0 0 0-26.32 5.422 24.308 24.308 0 0 0-7.151 17.515 24.315 24.315 0 0 1 7.151-16.515zM23.102 63.219L8.458 77.83l.411.59 14.232-14.201c1.851-1.884 5.433-6.5 5.664-10.44l-.069-.361c-.544 3.788-3.842 8.018-5.594 9.801z"/><path fill="#CCD0D2" d="M28.711 67.717L12.905 83.522a50.336 50.336 0 0 0 3.539 3.543l15.808-15.808a2.504 2.504 0 1 0-3.541-3.54z"/><path fill="#B8BCBE" d="M28.711 67.717L12.905 83.522l.484.517 15.322-15.322a2.504 2.504 0 0 1 4.222 1.271 2.504 2.504 0 0 0-4.222-2.271z"/></svg>